{"title":"Molly.Moon.and.the.Incredible.Book.of.Hypnotism.2015.BRRip-VYTO","uid":12943202,"size":376039816,"categoryP":"video","categoryS":"movies","magnet":"?xt=urn:btih:ff1e7e1e449c0a0fa85a97fd66c12e601b0a1724&amp;dn=Molly.Moon.and.the.Incredible.Book.of.Hypnotism.2015.BRRip-VYTO&amp;tr=udp%3A%2F%2Ftracker.leechers-paradise.org%3A6969&amp;tr=udp%3A%2F%2Fzer0day.ch%3A1337&amp;tr=udp%3A%2F%2Fopen.demonii.com%3A1337&amp;tr=udp%3A%2F%2Ftracker.coppersurfer.tk%3A6969&amp;tr=udp%3A%2F%2Fexodus.desync.com%3A6969","seeders":1,"leechers":1,"uploader":"VYTOP2PDL","files":6,"time":1449648864,"description":"____    ____ ____    ____ .___________.  ______   \r\n     /   /      /   / |           | /  __    \r\n    /   /      /   /  `---|  |----`|  |  |  | \r\n        /     _    _/       |  |     |  |  |  | \r\n       /        |  |         |  |     |  `--'  | \r\n    __/         |__|         |__|      ______/  \r\n                                                  \r\nPresenting Small Encodes with quality for years!\r\n                                                                                                   \r\n                                                                                                   \r\n\r\nMolly.Moon.and.the.Incredible.Book.of.Hypnotism.2015.BRRip.480p-VYTO\r\n\r\n\r\nGenre: Family     \nhttp://www.imdb.com/title/tt2445178/\r\n\r\n\r\nGeneral\r\nFormat                         : MPEG-4\r\nFile size                      : 351 MiB\r\nDuration                       : 1h 37mn\r\nOverall bit rate               : 502 Kbps\r\n\r\nVideo\r\nFormat                         : AVC\r\nBit rate                       : 467 Kbps\r\nWidth                          : 720 pixels\r\nHeight                         : 384 pixels\r\nDisplay aspect ratio           : 1.85:1\r\nFrame rate mode                : Constant\r\nFrame rate                     : 24.000 fps\r\nBit depth                      : 8 bits\r\nStream size                    : 326 MiB (93%)\r\nWriting library                : x264\r\n\r\nAudio\r\nFormat                         : AAC\r\nBit rate mode                  : Variable\r\nBit rate                       : 31.9 Kbps\r\nChannel(s)                     : 2 channels\r\nChannel positions              : Front: L R\r\nSampling rate                  : 48.0 KHz\r\nStream size                    : 22.3 MiB (6%)\r\nLanguage                       : English\r\n\r\nSubtitle                       : N/a\r\n\r\nScreen Shots:\r\n \nhttp://ititli.com/FI \nhttp://ititli.com/FO \nhttp://ititli.com/J9 \nhttp://ititli.com/JX \nhttp://ititli.com/Jq \nhttp://ititli.com/Jr \nhttp://ititli.com/J1 \nhttp://ititli.com/JT \nhttp://ititli.com/JW\r\n\r\n----------------------------------------------------------------------------------------------------\r\n\r\n\r\nEncoder Notes: Looking For Early Access To Anything You Can Provide WEBDL, DVDScr, DVDR, BluRay,\r\nDirect Audio, Music Releases and Seedboxes. If You Got anything to offer please contact us.\r\n\r\nSupport us by donating BC - 1FgwdzPsd1y25Gea8wP1qni35uGCtmkRCD\r\n\r\nSend some love!\r\nFind us and join us!","torrent":{"xt":"urn:btih:ff1e7e1e449c0a0fa85a97fd66c12e601b0a1724","amp;dn":"Molly.Moon.and.the.Incredible.Book.of.Hypnotism.2015.BRRip-VYTO","amp;tr":["udp%3A%2F%2Ftracker.leechers-paradise.org%3A6969","udp%3A%2F%2Fzer0day.ch%3A1337","udp%3A%2F%2Fopen.demonii.com%3A1337","udp%3A%2F%2Ftracker.coppersurfer.tk%3A6969","udp%3A%2F%2Fexodus.desync.com%3A6969"],"infoHash":"ff1e7e1e449c0a0fa85a97fd66c12e601b0a1724","infoHashBuffer":{"type":"Buffer","data":[255,30,126,30,68,156,10,15,168,90,151,253,102,193,46,96,27,10,23,36]},"announce":[],"urlList":[]}}